<svg xmlns="http://www.w3.org/2000/svg" viewBox="0 0 40 40" role="img" aria-label="Bramwell mark">
  <defs>
    <linearGradient id="g" x1="0" y1="0" x2="40" y2="40" gradientUnits="userSpaceOnUse">
      <stop offset="0" stop-color="#F26B2E"/>
      <stop offset="0.5" stop-color="#E43A8E"/>
      <stop offset="1" stop-color="#6674E8"/>
    </linearGradient>
  </defs>
  <path d="M8 6h24a4 4 0 0 1 4 4v16a4 4 0 0 1-4 4H18l-6 6v-6H8a4 4 0 0 1-4-4V10a4 4 0 0 1 4-4z" fill="url(#g)"/>
  <rect x="17" y="12" width="6" height="10" rx="3" fill="#fff"/>
  <path d="M14 20a6 6 0 0 0 12 0" stroke="#fff" stroke-width="1.6" stroke-linecap="round" fill="none"/>
  <line x1="20" y1="26" x2="20" y2="29" stroke="#fff" stroke-width="1.6" stroke-linecap="round"/>
</svg>